<svg xmlns="http://www.w3.org/2000/svg" viewBox="0 0 200 80">
  <path fill="#f0b8d0" d="M51.9,60.3l-4.6-12.5L43,50.9l1.7,5.2l-4.4-3.2l-4.4,3.2l1.7-5.2l-4.3-3.1v-0.1h5.4l1.7-5.2h0.1l1.7,5.2h5.4l-13.7-37L8.2,33.8L29,23.7L3,77.2L51.9,60.3z M23.2,35.7h3.2l1-3l1,3h3.2L29,37.6l1,3.1l-2.6-1.9l-2.6,1.9l1-3.1L23.2,35.7z M14.6,60.5l1.1-3.4l1.1,3.4h3.5l-2.8,2.1l1.1,3.4l-2.9-2.1L12.8,66l1.1-3.4l-2.8-2.1H14.6z"/>
  <path fill="#f0b8d0" d="M99.3,22.7V57h-4.4L78.7,33.7V57h-5.6V22.7h4.4L93.7,46V22.7H99.3z"/>
  <path fill="#f0b8d0" d="M133,50h-14.6l-2.4,6.9h-6.1l12.4-34.3h6.8l12.4,34.3h-6.1L133,50z M131.1,44.8l-5.4-15.5l-5.4,15.5H131.1z"/>
  <path fill="#f0b8d0" d="M158.1,22.7V57h-5.6V22.7H158.1z"/>
  <path fill="#f0b8d0" d="M197.1,22.7V57h-4.4l-16.2-23.3V57h-5.6V22.7h4.4L191.5,46V22.7H197.1z"/>
</svg>
